<?xml version="1.0" encoding="utf-8"?>
<!-- Generator: Adobe Illustrator 16.0.0, SVG Export Plug-In . SVG Version: 6.00 Build 0)  -->
<!DOCTYPE svg PUBLIC "-//W3C//DTD SVG 1.1//EN" "http://www.w3.org/Graphics/SVG/1.1/DTD/svg11.dtd">
<svg version="1.1" id="Layer_1" xmlns="http://www.w3.org/2000/svg" xmlns:xlink="http://www.w3.org/1999/xlink" x="0px" y="0px"
	 width="512px" height="512px" viewBox="0 0 512 512" enable-background="new 0 0 512 512" xml:space="preserve">
<path fill-rule="evenodd" clip-rule="evenodd" fill="#51AFB3" d="M178.702,241.821c-21.496,0-42.993-0.1-64.488,0.078
	c-4.651,0.039-7.343-1.676-9.323-5.826C74.003,171.327,43.019,106.627,12.069,41.911c-1.44-3.013-2.694-6.128-2.913-9.495
	c-0.555-8.532,7.578-15.538,16.041-14.012c4.346,0.783,8.166,2.847,12.049,4.712c100.67,48.364,201.318,96.771,301.976,145.16
	c49.954,24.013,99.919,48.003,149.88,72.002c2.533,1.217,5.195,2.221,7.584,3.674c5.63,3.426,5.528,9.368,6.168,14.935
	c0.178,1.549-1.001,2.368-1.917,3.314c-4.504,4.651-9.244,8.625-15.342,11.533c-80.222,38.265-160.303,76.824-240.404,115.338
	c-70.203,33.755-140.389,67.545-210.584,101.314c-3.613,1.738-7.281,3.308-11.39,3.413c-9.163,0.236-15.314-6.979-13.706-15.991
	c0.652-3.658,2.119-7.002,3.697-10.303c30.164-63.063,60.42-126.081,90.404-189.229c2.795-5.886,6.345-7.912,12.697-7.871
	c40.658,0.263,81.319,0.198,121.979,0.2c2.651,0,5.332-0.16,7.948-0.573c7.835-1.235,13.028-7.412,12.621-14.787
	c-0.421-7.622-6.44-13.358-14.667-13.405c-21.83-0.124-43.66-0.042-65.489-0.042C178.702,241.806,178.702,241.813,178.702,241.821z"
	/>
</svg>
